<svg width="120" height="68" viewBox="0 0 120 68" fill="none" xmlns="http://www.w3.org/2000/svg">
<path d="M114.104 3.71582L114.028 3.71094C112.625 3.61415 111.305 3.53324 109.967 3.43652H109.965C109.783 3.42823 109.604 3.42888 109.433 3.40918C109.263 3.38963 109.111 3.35133 108.989 3.27246C108.868 3.19403 108.772 3.06556 108.676 2.91211C108.598 2.78766 108.516 2.64227 108.429 2.51074C108.482 2.47694 108.535 2.44046 108.587 2.40234C108.664 2.34541 108.737 2.28902 108.811 2.2373C108.884 2.18602 108.952 2.14325 109.016 2.11523C109.08 2.08712 109.133 2.07647 109.178 2.08203C110.852 2.29132 112.527 2.58132 114.188 2.85547C115.639 3.0948 116.858 3.68294 117.745 4.90234H117.746C118.11 5.40027 118.247 5.83157 118.198 6.2373C118.149 6.64458 117.909 7.04365 117.481 7.47266C116.925 8.01221 116.414 8.79964 116.265 9.56152C115.929 11.2063 115.179 12.5983 114.248 13.9473C114.125 14.1174 114.116 14.3532 114.128 14.5801C114.134 14.6954 114.146 14.8178 114.155 14.9326C114.16 14.9906 114.165 15.0473 114.167 15.1025L114.168 15.2646C114.164 15.3914 114.165 15.52 114.166 15.6465C114.167 15.7735 114.167 15.8987 114.162 16.0215C114.152 16.2674 114.121 16.4974 114.03 16.7012L114.028 16.7041C114.013 16.7423 113.978 16.7812 113.916 16.8203C113.855 16.8591 113.775 16.8933 113.684 16.9258C113.592 16.9582 113.493 16.9879 113.394 17.0176C113.295 17.0469 113.192 17.0769 113.105 17.1104C112.943 17.1631 112.764 17.1863 112.575 17.2236C112.391 17.2601 112.199 17.3104 112.054 17.4287C110.959 18.2822 109.86 19.1552 108.889 20.1582C108.697 20.3497 108.568 20.6355 108.489 20.9365C108.411 21.239 108.381 21.5663 108.398 21.8486V21.8496C108.454 22.6505 108.568 23.4474 108.677 24.2402C108.786 25.034 108.89 25.8244 108.93 26.6182V26.6191C108.987 27.6316 109.476 28.6946 110.19 29.5625C110.903 30.4303 111.847 31.1116 112.827 31.3506C114.309 31.7048 115.787 32.107 117.183 32.6846C118.411 33.203 119.214 33.9246 119.608 34.8252C120.003 35.7261 119.994 36.8205 119.571 38.0977V38.0986C119.388 38.6818 119.131 39.2456 118.881 39.8154C118.631 40.3832 118.387 40.9567 118.232 41.5518C117.849 43.0222 117.137 44.2991 116.331 45.5273C115.528 46.7507 114.623 47.937 113.873 49.2031C113.371 50.0538 113.12 50.744 113.161 51.4229C113.198 52.0174 113.458 52.5921 113.946 53.248L114.17 53.5342C114.406 53.827 114.671 54.1002 114.923 54.374C115.176 54.6494 115.418 54.9273 115.615 55.2354L115.616 55.2363C115.722 55.3943 115.798 55.6053 115.835 55.8223C115.863 55.9851 115.867 56.1473 115.846 56.29L115.816 56.4258L115.815 56.4297C115.804 56.4708 115.77 56.5207 115.707 56.5742C115.646 56.6265 115.564 56.6767 115.473 56.7188C115.287 56.8039 115.076 56.8498 114.935 56.8359C114.308 56.7555 113.616 56.6128 113.118 56.2705C112.024 55.5142 111.034 54.6023 109.979 53.7744C109.636 53.5054 109.344 53.4031 109.091 53.5127C108.967 53.5662 108.864 53.6662 108.774 53.7998C108.685 53.9337 108.605 54.106 108.531 54.3105V54.3115C108.316 54.9337 107.976 55.5176 107.634 56.1074L107.296 56.7002C106.506 58.1024 105.717 59.5036 104.896 60.8887C104.565 61.4424 104.454 61.9766 104.522 62.4922C104.588 63.006 104.83 63.4944 105.191 63.9609L105.191 63.9619C105.725 64.641 106.292 65.2884 106.907 65.8877C107.203 66.175 107.466 66.5069 107.574 66.8271C107.628 66.9858 107.642 67.1378 107.607 67.2793C107.582 67.3847 107.528 67.4889 107.437 67.5879L107.331 67.6855C107.136 67.8444 106.777 67.9209 106.379 67.9189C105.985 67.9169 105.573 67.8381 105.288 67.707H105.289C104.781 67.469 104.319 67.143 103.858 66.7969C103.4 66.4523 102.94 66.086 102.444 65.7773C101.606 65.2612 100.714 64.7426 99.7882 64.3691L99.5548 64.2686C99.0339 64.0233 98.6782 63.6962 98.4962 63.3037C98.2888 62.8566 98.2996 62.3089 98.5753 61.6709C98.7225 61.3274 98.8775 60.9592 99.1202 60.7314V60.7305C100.337 59.5856 100.812 58.116 101.192 56.6133L101.352 55.9688C101.58 55.0561 101.722 54.1211 102.12 53.293C102.309 52.8989 102.578 52.5378 102.865 52.1777C103.151 51.8199 103.458 51.4609 103.71 51.0781V51.0771C104.688 49.5772 105.013 47.8845 105.029 46.1348V46.1338C105.029 45.7228 104.809 45.2543 104.561 44.9395L104.56 44.9385C103.594 43.7311 102.574 42.5484 101.594 41.3438C100.294 39.7444 99.8174 37.8625 99.6173 35.8721L99.5811 35.4727C99.5164 34.7607 99.4024 34.0116 99.1739 33.3262L99.1026 33.1279C98.9495 32.7261 98.7342 32.2946 98.4327 32.002L98.2745 31.8682C96.8217 30.819 95.3046 29.8343 93.7725 28.8828H93.7716C93.5561 28.7535 93.3007 28.6985 93.0538 28.6523C92.8649 28.617 92.6808 28.5872 92.5098 28.5352L92.3438 28.4746C92.1426 28.3861 91.9251 28.2869 91.7286 28.1689C91.581 28.0803 91.4481 27.9831 91.3438 27.874L91.2491 27.7607C90.8883 27.2476 90.5591 26.7101 90.2286 26.1699C89.8984 25.6303 89.5666 25.0876 89.2022 24.5693C88.8373 24.0409 88.6906 23.2919 88.7696 22.5693C88.8487 21.8465 89.1516 21.1644 89.669 20.7627H89.67C90.6609 19.9893 91.6601 19.2243 92.6632 18.4629L95.6807 16.1855C95.9541 15.9784 96.1114 15.7829 96.172 15.5361C96.2312 15.2946 96.194 15.016 96.1134 14.6533C95.6967 12.7861 95.7027 10.7294 96.4171 9.05957C97.1293 7.39504 98.5487 6.10804 100.979 5.77344C101.346 5.72319 101.805 5.77836 102.294 5.91211C102.782 6.04559 103.296 6.2554 103.771 6.50781C104.246 6.76028 104.679 7.05457 105.011 7.35547C105.343 7.65758 105.563 7.95813 105.627 8.22363V8.22461C105.689 8.51919 105.671 8.90052 105.538 9.15234C104.929 10.2718 104.947 11.3748 105.306 12.5488V12.5498C105.349 12.7017 105.344 12.8929 105.303 13.0938C105.262 13.2935 105.187 13.4963 105.102 13.668C104.842 14.1877 104.769 14.6204 104.939 14.9297C105.11 15.2418 105.505 15.3883 106.075 15.3965H106.077C107.573 15.3963 108.99 14.5091 109.567 13.2051L109.568 13.2021C109.598 13.1278 109.644 13.0449 109.697 12.9746C109.751 12.905 109.808 12.8532 109.861 12.8281C110.876 12.4323 111.492 11.7103 111.998 10.9141C112.25 10.5174 112.477 10.0977 112.71 9.69238C112.945 9.28524 113.188 8.88992 113.474 8.53223C114.332 7.45891 114.395 6.30205 114.118 5.04688H114.117C114.079 4.87996 114.075 4.70282 114.081 4.49707C114.087 4.29419 114.104 4.05801 114.104 3.79102V3.71582Z" fill="white" stroke="black" stroke-width="0.161182"/>
<path d="M5.80558 51.4849H1.24414V63.2511H5.80558C9.09369 63.2511 11.7532 60.6239 11.7532 57.368C11.7532 54.1121 9.09369 51.4849 5.80558 51.4849ZM5.80558 60.8818H3.62963V53.8542H5.80558C7.772 53.8542 9.35158 55.4338 9.35158 57.368C9.35158 59.3022 7.772 60.8818 5.80558 60.8818Z" fill="white"/>
<path d="M17.3139 51.4849L12.7686 63.2511H15.2992L16.2018 60.914H21.0856L21.9882 63.2511H24.5188L19.9734 51.4849H17.3139ZM17.1205 58.5446L18.6518 54.5795L20.183 58.5446H17.1205Z" fill="white"/>
<path d="M36.0594 59.5762C36.0594 58.5446 35.6242 57.6098 34.9311 56.9328C35.3663 56.3687 35.6242 55.6434 35.6242 54.8858C35.6242 53.0161 34.093 51.4849 32.2071 51.501H25.5342V63.2512H32.3522C34.3992 63.2512 36.0594 61.6071 36.0594 59.5762ZM27.9197 53.8704H32.2233C32.8035 53.8704 33.2709 54.3056 33.2709 54.8858C33.2709 55.4661 32.8035 55.9013 32.2233 55.9013H27.9197V53.8704ZM27.9197 58.2706H32.3683C33.0936 58.2706 33.69 58.867 33.69 59.5923C33.69 60.3176 33.0936 60.914 32.3683 60.914H27.9197V58.2706Z" fill="white"/>
<path d="M45.1661 51.4849L40.1695 56.2236V51.4849H37.7357V63.2511H40.1695V58.5124L45.1661 63.2672H48.6477L42.4583 57.368L48.6477 51.4849H45.1661Z" fill="white"/>
<path d="M58.7054 53.8542V51.4849H50.3079V63.2511C53.1124 63.2511 55.9009 63.2511 58.7054 63.2511V60.8818H52.7256V58.5446H58.0929V56.1752H52.7256V53.8381H58.7054V53.8542Z" fill="white"/>
<path d="M66.4261 63.2672V53.8542H70.0365V51.4849H60.3979V53.8542H64.0083V63.2672H66.4261Z" fill="white"/>
<path d="M71.7289 51.4849V63.2672H74.1144V55.4983L79.8363 63.2672H82.2379V51.4849H79.8363V59.2377L74.1144 51.4849H71.7289Z" fill="white"/>
<path d="M87.7987 51.4849L83.2534 63.2511H85.7839L86.6866 60.914H91.5704L92.473 63.2511H95.0035L90.4582 51.4849H87.7987ZM87.6053 58.5446L89.1365 54.5795L90.6678 58.5446H87.6053Z" fill="white"/>
<path d="M11.1245 32.0141L8.90021 30.1605L7.07886 32.1914L9.35152 34.0289L11.1245 32.0141Z" fill="white"/>
<path d="M16.9594 32.272L18.5873 33.6743L20.3119 31.6918L18.1682 29.8059L16.8465 31.3372L15.2347 29.9188L13.494 31.9335L15.6699 33.7871L16.9594 32.272Z" fill="white"/>
<path d="M13.5423 45.8596H16.2663C17.2334 45.8596 17.8781 45.3761 18.2166 44.3929C18.4745 45.3761 19.087 45.8596 20.0379 45.8596H20.5859H21.7303H27.9519H29.0802H35.318H36.4462H42.684H43.8122H50.0338H51.1782H70.0526C70.3428 45.8596 70.5362 45.8274 70.6651 45.7468C70.7941 45.6662 70.9069 45.5212 71.0036 45.2794C71.1164 45.0376 71.2293 44.7797 71.3421 44.5379C71.4549 44.2962 71.5677 44.0383 71.6806 43.7804C71.8579 44.3445 72.1158 44.8442 72.4542 45.2472C72.7927 45.6501 73.2924 45.8596 73.9532 45.8596H73.9855H75.0815H78.9821C79.2883 45.8596 79.4979 45.6823 79.6107 45.3116L80.9808 40.7663C80.9808 39.7347 80.7873 38.6548 80.4005 37.4943C80.0137 36.3499 79.4657 35.2861 78.7403 34.3029L76.9351 37.5588C77.9022 38.7193 78.5791 39.9443 78.9821 41.2337H75.0654H73.8404H73.6953C73.0828 41.2337 72.7605 40.9436 72.7444 40.3633C72.6799 38.6548 72.0996 37.4782 71.0036 36.8496C69.9076 36.221 68.4247 35.947 66.5711 36.0437C64.7981 36.1404 62.8317 36.2693 60.688 36.4144C58.5443 36.5595 56.5778 36.64 54.8048 36.6239C54.2085 36.6239 54.0956 36.4789 54.4663 36.2048C54.7081 36.0275 55.0788 35.818 55.5785 35.5762C56.0782 35.3345 56.6423 35.1249 57.2548 34.8993C57.8673 34.6897 58.512 34.4963 59.1567 34.3351C59.8176 34.174 60.414 34.0772 60.9781 34.0289L62.7994 30.499C62.8478 30.4023 62.8639 30.3056 62.8317 30.2089C62.7994 30.1122 62.7189 30.0638 62.5577 30.0799C61.6067 30.1605 60.5268 30.4345 59.3179 30.9342C58.1091 31.4178 56.9647 32.0464 55.8847 32.8039C54.8048 33.5615 53.9022 34.4157 53.1608 35.3828C52.4193 36.3338 52.0486 37.317 52.0486 38.3163C52.0486 38.7515 52.371 39.0578 53.0157 39.219C53.6604 39.3801 54.5792 39.4768 55.7558 39.4768C56.6584 39.4768 57.6577 39.4446 58.7377 39.3963C59.8337 39.3318 60.8814 39.2673 61.8968 39.2028C62.9123 39.1222 63.8149 39.0578 64.6208 38.9933C65.4267 38.9288 65.9747 38.8966 66.281 38.8805C67.78 38.8482 68.8276 39.0094 69.4079 39.3963C69.9882 39.7831 70.2944 40.3795 70.2944 41.2176H49.9855V41.2337H43.7639H42.6356H36.3979H35.2696H29.0319H27.9036H21.682V41.2176H20.4892C20.0057 41.2176 19.7156 41.0887 19.6027 40.8469C19.4899 40.6051 19.4415 40.2505 19.4415 39.7992C19.4415 39.3157 19.3932 38.7515 19.2965 38.0907C19.1998 37.4298 19.0547 36.8979 18.8613 36.495L17.0399 38.3647C16.9432 38.4614 16.9271 38.5903 17.0077 38.7193C17.1689 39.0255 17.2978 39.3157 17.3945 39.6219C17.4912 39.9282 17.5396 40.2828 17.5396 40.6857C17.5396 40.7663 17.5074 40.8791 17.459 41.0242C17.3945 41.1693 17.2334 41.2337 16.9593 41.2337H13.5584H12.7041H12.3657C11.8821 41.2337 11.592 41.1048 11.4792 40.863C11.3663 40.6212 11.318 40.2666 11.318 39.8153C11.318 39.3318 11.2696 38.7676 11.1729 38.1068C11.0762 37.446 10.9311 36.9141 10.7377 36.5111L8.8519 38.3647C8.75519 38.4614 8.73908 38.5903 8.81967 38.7193C8.98085 39.0255 9.10979 39.3157 9.2065 39.6219C9.30321 39.9282 9.35157 40.2828 9.35157 40.6857C9.35157 40.7663 9.31933 40.8791 9.27098 41.0242C9.2065 41.1693 9.04532 41.2337 8.77131 41.2337H5.61215H4.51611H4.45164C3.95198 41.2337 3.61349 41.0887 3.43619 40.7824C3.25889 40.4762 3.14607 40.0571 3.09771 39.5091L2.1145 29.4352C2.09839 29.274 2.03391 29.274 1.9372 29.3869C1.66319 29.7253 1.35695 30.0961 1.0507 30.4829C0.72834 30.8858 0.454332 31.2566 0.212559 31.5951C0.0997317 31.7562 0.0352585 31.9013 0.0030221 32.0302C-0.0130961 32.1592 0.0352599 32.3365 0.148087 32.5944C0.277033 32.9006 0.405977 33.4325 0.534923 34.1901C0.663868 34.9637 0.792814 35.8341 0.905641 36.8012C1.01847 37.7844 1.11518 38.7838 1.19577 39.8314C1.27636 40.8791 1.35695 41.8301 1.40531 42.6682C1.46978 43.732 1.63096 44.5218 1.90497 45.0537C2.17898 45.5856 2.83982 45.8435 3.91974 45.8435H4.74177H5.61215H8.09435C9.06144 45.8435 9.70617 45.36 10.0446 44.3768C10.3025 45.36 10.915 45.8435 11.866 45.8435H12.9298H13.5423V45.8596Z" fill="white"/>
<path d="M77.0479 48.1645L75.2427 50.1954L77.4992 52.0329L79.2883 50.0181L77.0479 48.1645Z" fill="white"/>
<path d="M84.5751 45.8596H90.4421C90.8128 45.8596 91.0546 45.6501 91.1835 45.231L92.4246 40.9275C92.4246 39.6219 92.0861 38.2518 91.4092 36.8012C90.7322 35.3506 89.6362 34.1095 88.1372 33.0779L86.8639 36.9785C87.5408 37.4137 88.2984 38.0907 89.1204 38.9933C89.9424 39.8959 90.3776 40.6535 90.426 41.2498H85.0586C84.6718 41.2498 84.3978 41.2015 84.2527 41.1209C84.1076 41.0403 83.9787 40.9113 83.8981 40.734C83.8498 40.6373 83.7853 40.589 83.7047 40.6051C83.6241 40.6212 83.5757 40.6696 83.5435 40.7824C83.3662 41.4271 83.2856 42.1847 83.2856 43.0551C83.2856 43.9254 83.3662 44.6024 83.4952 45.0859C83.6241 45.6017 83.9787 45.8596 84.5751 45.8596Z" fill="white"/>
<path d="M93.0041 3.20071C92.8717 3.99778 96.0146 9.30297 96.0146 9.30297L96.2404 10C96.2404 10 96.918 8.60593 98.7249 7.21187C100.532 5.81781 102 5.81781 102 5.81781C102 5.81781 97.4422 0.222482 96.5 0.5C95.5578 0.777518 93.1364 2.40364 93.0041 3.20071Z" fill="#A51818"/>
</svg>
