<svg width="88" height="88" viewBox="0 0 88 88" fill="none" xmlns="http://www.w3.org/2000/svg">
<g clip-path="url(#clip0_52_14746)">
<rect width="88" height="88" rx="44" fill="white"/>
<path fill-rule="evenodd" clip-rule="evenodd" d="M-13.4998 0.875V87.125H101.5V0.875H-13.4998Z" fill="#F7FCFF"/>
<mask id="mask0_52_14746" style="mask-type:luminance" maskUnits="userSpaceOnUse" x="-14" y="0" width="116" height="88">
<path fill-rule="evenodd" clip-rule="evenodd" d="M-13.4998 0.875V87.125H101.5V0.875H-13.4998Z" fill="white"/>
</mask>
<g mask="url(#mask0_52_14746)">
<path d="M43.8113 65.7744C43.6344 65.8354 43.4158 65.9612 43.1736 66.1279C44.0527 66.4726 45.0812 66.9301 46.0789 67.5068L44.4773 68.8408C44.4735 68.8368 43.3759 67.6936 42.3171 66.7949C41.265 67.688 40.1744 68.8227 40.157 68.8408L38.5554 67.5068C39.5525 66.9304 40.58 66.4725 41.4587 66.1279C41.2171 65.9617 40.9996 65.8353 40.823 65.7744V65.3369C40.84 65.3413 41.4331 65.4979 42.3162 65.8086C43.2129 65.493 43.8113 65.3369 43.8113 65.3369V65.7744ZM36.0447 64.2979C36.9075 64.1565 38.9595 65.2962 38.9783 65.3066C38.9616 65.3179 37.4654 66.3244 35.8708 66.6494C34.2806 66.9734 33.0226 65.1333 33.0017 65.1025C33.0279 65.0946 35.183 64.4391 36.0447 64.2979ZM45.656 65.3066C45.6736 65.2969 47.7265 64.1564 48.5896 64.2979C49.4511 64.4391 51.6054 65.0943 51.6326 65.1025C51.6114 65.1337 50.3535 66.9734 48.7634 66.6494C47.1684 66.3243 45.6718 65.3173 45.656 65.3066ZM30.3787 64.751C30.3787 64.751 31.1021 64.9568 31.3611 65.0645C31.6162 65.1708 31.8768 65.7266 31.8845 65.7432C31.8662 65.7424 31.2456 65.7161 30.7585 65.5332C30.2704 65.3496 30.3761 64.7647 30.3787 64.751ZM54.2546 64.751C54.2566 64.7615 54.3647 65.3492 53.8748 65.5332C53.3804 65.7188 52.7488 65.7432 52.7488 65.7432C52.7539 65.7322 53.0167 65.1711 53.2732 65.0645C53.5294 64.958 54.2386 64.7556 54.2546 64.751ZM34.8552 60.8965C34.8786 60.906 36.9674 61.7538 37.7263 62.1865C38.4893 62.6216 39.3718 64.8164 39.3718 64.8164C39.3718 64.8164 37.563 64.6595 36.1111 63.9043C34.6707 63.1549 34.8523 60.9312 34.8552 60.8965ZM49.7791 60.8965C49.782 60.9312 49.9636 63.1549 48.5232 63.9043C47.0713 64.6595 45.2625 64.8164 45.2625 64.8164C45.2625 64.8164 46.145 62.6216 46.908 62.1865C47.6667 61.7539 49.7546 60.9064 49.7791 60.8965ZM30.3718 62.3496C30.39 62.3498 32.4058 62.3667 33.1726 62.4736C33.9394 62.5806 35.2997 64.0547 35.3123 64.0684C35.2914 64.0743 33.7244 64.5178 32.2888 64.373C30.8571 64.2286 30.3806 62.384 30.3718 62.3496ZM54.2625 62.3496C54.2536 62.3842 53.7771 64.2286 52.3455 64.373C50.9094 64.5179 49.3419 64.074 49.322 64.0684C49.3339 64.0555 50.6947 62.5807 51.4617 62.4736C52.2282 62.3668 54.2428 62.3498 54.2625 62.3496ZM27.0613 62.29C27.8337 62.2761 29.4021 63.5133 29.4236 63.5303C29.3983 63.542 27.9229 64.2223 26.4851 64.3037C25.0464 64.3851 24.287 62.6331 24.2751 62.6055C24.2786 62.605 26.2843 62.3045 27.0613 62.29ZM57.573 62.29C58.3491 62.3045 60.351 62.6042 60.3591 62.6055C60.3471 62.6334 59.5878 64.3851 58.1492 64.3037C56.7111 64.2223 55.2353 63.5417 55.2107 63.5303C55.2315 63.5138 56.8004 62.2761 57.573 62.29ZM23.0876 60.9785C23.0922 60.9798 23.8105 61.1846 24.0691 61.292C24.3281 61.3997 24.5935 61.9717 24.5935 61.9717C24.5935 61.9717 23.9619 61.9473 23.4675 61.7617C22.9732 61.5761 23.0876 60.9785 23.0876 60.9785ZM32.2019 60.9785C32.2088 60.9805 32.9253 61.1848 33.1833 61.292C33.4424 61.3997 33.7078 61.9717 33.7078 61.9717C33.7078 61.9717 33.0761 61.9473 32.5818 61.7617C32.0874 61.5761 32.2019 60.9785 32.2019 60.9785ZM52.4324 60.9785C52.4324 60.9785 52.5466 61.576 52.0525 61.7617C51.5647 61.9449 50.943 61.971 50.9265 61.9717C50.9292 61.9659 51.1923 61.3992 51.45 61.292C51.709 61.1843 52.4324 60.9785 52.4324 60.9785ZM61.5466 60.9785C61.5466 60.9785 61.6611 61.5761 61.1667 61.7617C60.6724 61.9473 60.0408 61.9717 60.0408 61.9717C60.0408 61.9717 60.3062 61.3997 60.5652 61.292C60.8234 61.1848 61.5404 60.9803 61.5466 60.9785ZM24.0027 59.2031C24.036 59.2093 26.0053 59.575 26.739 59.8125C27.479 60.0523 28.5691 61.7549 28.5691 61.7549C28.5431 61.7575 26.9255 61.9206 25.5388 61.5293C24.1409 61.1348 24.0027 59.2031 24.0027 59.2031ZM60.6326 59.2031C60.6326 59.2031 60.4934 61.1348 59.0955 61.5293C57.7084 61.9207 56.0904 61.7575 56.0652 61.7549C56.0652 61.7549 57.1553 60.0523 57.8953 59.8125C58.6352 59.573 60.6326 59.2031 60.6326 59.2031ZM27.4207 57.9902C27.4486 58.0012 29.3154 58.7359 29.991 59.1094C30.6673 59.4834 31.4073 61.3416 31.4167 61.3652C31.3946 61.3632 29.7732 61.2159 28.4851 60.5664C27.1993 59.9181 27.4168 58.023 27.4207 57.9902ZM57.2136 57.9902C57.2177 58.0248 57.4341 59.9183 56.1492 60.5664C54.8521 61.2204 53.2166 61.3652 53.2166 61.3652C53.2203 61.3558 53.9643 59.4847 54.6433 59.1094C55.3242 58.733 57.2136 57.9902 57.2136 57.9902ZM20.4255 58.4258C21.2407 58.4051 23.3736 59.7322 23.3787 59.7354C23.3787 59.7354 22.0609 60.4844 20.5593 60.582C19.0649 60.6791 17.6136 58.7997 17.5994 58.7812C17.634 58.7755 19.6164 58.4463 20.4255 58.4258ZM64.2087 58.4258C65.0177 58.4463 66.9995 58.7754 67.0349 58.7812C67.0202 58.8004 65.5699 60.6786 64.0759 60.582C62.5742 60.4845 61.2556 59.7354 61.2556 59.7354C61.2556 59.7354 63.3926 58.4051 64.2087 58.4258ZM25.2751 57.8926C25.2939 57.8979 26.001 58.0998 26.2566 58.2061C26.514 58.3131 26.7778 58.8779 26.781 58.8848C26.781 58.8848 26.1494 58.8604 25.655 58.6748C25.166 58.4912 25.2728 57.9053 25.2751 57.8926ZM59.3591 57.8926C59.3619 57.9073 59.4672 58.4914 58.9792 58.6748C58.4898 58.8586 57.8656 58.8843 57.8533 58.8848C57.8592 58.872 58.1208 58.313 58.3767 58.2061C58.6357 58.0984 59.3591 57.8926 59.3591 57.8926ZM13.3093 54.248C13.3359 54.2479 15.1021 54.2414 15.8035 54.3369C16.3545 54.4121 17.4621 55.3068 17.9236 55.6973C17.8458 55.0217 18.0332 54.4175 18.0349 54.4121C18.0349 54.4121 19.9622 55.4416 20.6384 55.9199C21.3106 56.3955 21.7973 58.3501 21.8025 58.3711C21.8025 58.3711 20.0484 57.9719 18.7498 57.123C18.277 56.814 18.0554 56.3705 17.9626 55.9316C17.5763 56.0502 16.5861 56.3101 15.5642 56.2119C14.2602 56.0863 13.3179 54.2646 13.3093 54.248ZM71.325 54.248C71.325 54.248 70.3792 56.086 69.0691 56.2119C68.0469 56.3101 67.0566 56.0502 66.6707 55.9316C66.5779 56.3704 66.3571 56.8141 65.8845 57.123C64.5912 57.9684 62.846 58.3678 62.8318 58.3711C62.8383 58.3448 63.3236 56.3949 63.9949 55.9199C64.6655 55.4455 66.5689 54.4279 66.5984 54.4121C66.5984 54.4121 66.7878 55.0186 66.7097 55.6973C67.171 55.3069 68.2797 54.412 68.8308 54.3369C69.5377 54.2407 71.325 54.248 71.325 54.248ZM17.9099 57.1973C18.3437 57.1752 19.4587 57.8574 19.4587 57.8574C19.4405 57.8681 18.7382 58.2774 17.95 58.3496C17.1514 58.4225 16.4041 57.4268 16.4041 57.4268C16.4228 57.4231 17.4802 57.2195 17.9099 57.1973ZM66.7244 57.1973C67.154 57.2195 68.2108 57.423 68.2302 57.4268C68.2302 57.4268 67.4829 58.4225 66.6843 58.3496C65.8959 58.2774 65.1934 57.8679 65.1755 57.8574C65.1755 57.8574 66.2905 57.1752 66.7244 57.1973ZM21.1785 53.5342C21.1785 53.5342 22.5822 54.626 23.0974 55.1543C23.6091 55.679 24.2961 58.0565 24.3054 58.0889C24.3054 58.0889 23.1342 57.765 22.158 56.8369C21.1819 55.9087 21.1785 53.5342 21.1785 53.5342ZM63.4558 53.5342C63.4558 53.5342 63.4524 55.9087 62.4763 56.8369C61.5001 57.765 60.3289 58.0889 60.3289 58.0889C60.3381 58.0568 61.0251 55.6791 61.5369 55.1543C62.0521 54.626 63.4558 53.5342 63.4558 53.5342ZM12.9646 48.9258C12.9874 48.9387 15.2518 50.2268 16.0486 50.8262C16.8492 51.4286 17.4275 53.9141 17.4275 53.9141C17.4275 53.9141 15.3497 53.411 13.8113 52.3418C12.2728 51.2724 12.9646 48.9258 12.9646 48.9258ZM71.6697 48.9258C71.6697 48.9258 72.3615 51.2724 70.823 52.3418C69.2845 53.4111 67.2068 53.9141 67.2068 53.9141C67.2068 53.9141 67.7842 51.4289 68.5847 50.8262C69.3854 50.2238 71.6697 48.9258 71.6697 48.9258ZM18.615 50.665C18.615 50.665 19.0049 51.6853 19.1023 52.1084C19.1985 52.5269 18.7329 53.7211 18.7224 53.748C18.7131 53.7371 18.1842 53.1147 17.9753 52.3477C17.7651 51.5739 18.615 50.665 18.615 50.665ZM66.0193 50.665C66.0282 50.6746 66.8672 51.578 66.658 52.3477C66.4501 53.1109 65.9262 53.7312 65.9119 53.748C65.9031 53.7255 65.4348 52.5278 65.531 52.1084C65.6284 51.6853 66.0193 50.665 66.0193 50.665Z" fill="#006B49"/>
<path fill-rule="evenodd" clip-rule="evenodd" d="M86.4282 11.7178C86.4282 11.7178 87.6722 13.3165 86.4282 13.3165C85.1841 13.3165 82.0207 15.0463 82.0207 15.0463C82.0207 15.0463 80.516 17.2921 78.6935 17.8002C76.871 18.3083 76.2564 20.1951 73.5886 20.9815C70.9208 21.7679 70.6482 21.9826 70.6482 22.7785C70.6482 23.5744 71.103 24.9224 69.2813 24.9224C67.4595 24.9224 66.1721 22.3717 65.1862 24.9224C64.2002 27.473 63.2017 28.2207 64.5672 29.7811C65.9327 31.3414 67.7418 32.8356 68.5116 33.7367C69.2813 34.6378 74.4151 37.275 70.6482 37.275C66.8814 37.275 68.7751 34.8879 65.8752 35.7599C62.9754 36.6319 64.6402 37.9182 62.424 37.275C60.2078 36.6319 58.7302 36.0451 58.0426 36.3385C57.3549 36.6319 56.2501 34.7083 56.2501 37.275C56.2501 39.8417 58.3184 38.8013 53.8838 41.6364C49.4492 44.4716 50.3299 43.6882 48.2945 43.6882C46.259 43.6882 45.5439 44.9715 44.1867 44.9715C42.8295 44.9715 42.9951 44.9715 41.4665 44.9715C39.938 44.9715 41.5757 43.3479 38.969 44.9715C36.3624 46.5951 35.4285 46.9183 35.4285 47.5422C35.4285 48.166 35.4285 49.8201 35.4285 49.8201C35.4285 49.8201 33.0402 51.1863 33.0402 49.8201C33.0402 48.4538 32.3041 48.104 31.3139 47.5422C30.3236 46.9803 28.345 47.3848 26.2318 47.5422C24.1186 47.6995 21.7296 45.4108 19.8952 45.4108C18.0607 45.4108 17.7194 43.6882 17.2176 43.6882C16.7158 43.6882 17.7411 42.216 15.6052 40.8949C13.4692 39.5739 12.7216 39.4097 12.7216 37.275C12.7216 35.1403 11.7407 34.5565 11.7407 33.2594C11.7407 31.9623 12.7859 33.7367 15.0018 33.7367C17.2176 33.7367 17.363 32.364 19.8952 31.0725C22.4274 29.7811 23.2867 29.0743 25.3981 29.7811C27.5095 30.4878 29.5876 33.1214 31.3139 30.5937C33.0402 28.066 33.0402 25.1754 33.0402 23.7161C33.0402 22.2567 32.0192 21.841 34.7752 22.7785C37.5312 23.7161 39.1346 23.7161 43.7146 23.7161C48.2945 23.7161 53.7707 25.2138 55.4583 23.7161C57.146 22.2183 58.95 20.9815 63.3286 20.9815C67.7071 20.9815 69.1377 18.8295 72.0821 17.8002C75.0264 16.7709 70.6844 18.9468 77.2889 16.1317C83.8934 13.3165 86.4282 11.7178 86.4282 11.7178Z" fill="#F57A01"/>
</g>
</g>
<defs>
<clipPath id="clip0_52_14746">
<rect width="88" height="88" rx="44" fill="white"/>
</clipPath>
</defs>
</svg>
