<svg width="88" height="88" viewBox="0 0 88 88" fill="none" xmlns="http://www.w3.org/2000/svg">
<g clip-path="url(#clip0_52_14723)">
<rect width="88" height="88" rx="44" fill="white"/>
<path fill-rule="evenodd" clip-rule="evenodd" d="M-23.4666 -6.60107V94.5989H111.467V-6.60107H-23.4666Z" fill="#F7FCFF"/>
<mask id="mask0_52_14723" style="mask-type:luminance" maskUnits="userSpaceOnUse" x="-24" y="-7" width="136" height="102">
<path fill-rule="evenodd" clip-rule="evenodd" d="M-23.4666 -6.60107V94.5989H111.467V-6.60107H-23.4666Z" fill="white"/>
</mask>
<g mask="url(#mask0_52_14723)">
<path fill-rule="evenodd" clip-rule="evenodd" d="M-23.4666 -6.60107V27.1323H111.467V-6.60107H-23.4666Z" fill="#FF8C1A"/>
<path fill-rule="evenodd" clip-rule="evenodd" d="M-23.4666 60.8657V94.5991H111.467V60.8657H-23.4666Z" fill="#5EAA22"/>
<path d="M43.9998 27.1323C53.3148 27.1323 60.8667 34.6835 60.8669 43.9985C60.8669 53.3137 53.315 60.8657 43.9998 60.8657C34.6848 60.8655 27.1335 53.3136 27.1335 43.9985C27.1338 34.6837 34.6849 27.1326 43.9998 27.1323ZM44.0007 31.3491C37.0143 31.3491 31.3503 37.0131 31.3503 43.9995C31.3506 50.9857 37.0145 56.6489 44.0007 56.6489C50.9868 56.6487 56.6499 50.9856 56.6501 43.9995C56.6501 37.0133 50.9869 31.3494 44.0007 31.3491Z" fill="#3D58DB"/>
<path fill-rule="evenodd" clip-rule="evenodd" d="M43.9768 47.6283L41.5698 60.7867L42.9675 47.4832L36.9508 59.4304L42.0399 47.0596L32.901 56.8277L41.2692 46.3918L29.7485 53.1896L40.7179 45.5339L27.7487 48.8106L40.4306 44.5554L27.0636 44.0456L40.4306 43.5357L27.7487 39.2806L40.7179 42.5572L29.7485 34.9016L41.2692 41.6994L32.901 31.2634L42.0399 41.0316L36.9508 28.6607L42.9675 40.608L41.5698 27.3045L43.9768 40.4628L46.3839 27.3045L44.9862 40.608L51.0029 28.6607L45.9138 41.0316L55.0527 31.2634L46.6845 41.6994L58.2052 34.9016L47.2358 42.5572L60.205 39.2806L47.5231 43.5357L60.8901 44.0456L47.5231 44.5554L60.205 48.8106L47.2358 45.5339L58.2052 53.1896L46.6845 46.3918L55.0527 56.8277L45.9138 47.0596L51.0029 59.4304L44.9862 47.4832L46.3839 60.7867L43.9768 47.6283Z" fill="#3D58DB"/>
</g>
</g>
<defs>
<clipPath id="clip0_52_14723">
<rect width="88" height="88" rx="44" fill="white"/>
</clipPath>
</defs>
</svg>
