<svg width="88" height="88" viewBox="0 0 88 88" fill="none" xmlns="http://www.w3.org/2000/svg">
<g clip-path="url(#clip0_64_14855)">
<path fill-rule="evenodd" clip-rule="evenodd" d="M21.7443 -0.128906H110V88.1269H21.7443V-0.128906Z" fill="#2F8D00"/>
<path fill-rule="evenodd" clip-rule="evenodd" d="M-7.67444 -0.128906H21.7442V88.1269H-7.67444V-0.128906Z" fill="#F7FCFF"/>
<path d="M38.6013 61.0861C21.3899 48.644 32.0673 23.8365 38.8665 22.8471C38.8665 22.8471 32.3141 42.973 45.3485 51.7066C58.3755 60.4348 74.7862 56.1636 74.806 56.1584C72.3007 61.5677 55.8126 73.5278 38.6013 61.0861ZM62.0173 30.0742L70.013 26.4123L65.7372 34.4156L73.7688 40.406L63.5144 39.7141L58.3036 47.3735L57.0614 38.3806L47.8614 36.742L56.5828 32.4773L56.078 24.4899L62.0173 30.0742Z" fill="#F1F9FF"/>
</g>
<defs>
<clipPath id="clip0_64_14855">
<rect width="88" height="88" rx="44" fill="white"/>
</clipPath>
</defs>
</svg>
