<svg width="89" height="88" viewBox="0 0 89 88" fill="none" xmlns="http://www.w3.org/2000/svg">
<g clip-path="url(#clip0_64_14836)">
<rect x="0.5" width="88" height="88" rx="44" fill="white"/>
<path fill-rule="evenodd" clip-rule="evenodd" d="M-23.5535 -7.18799H111.38V94.012H-23.5535V-7.18799Z" fill="#F7FCFF"/>
<path fill-rule="evenodd" clip-rule="evenodd" d="M14.4015 48.671L9.14285 51.8457L10.3423 45.6507L5.96313 41.0143L11.8928 40.7636L14.4015 34.979L16.9102 40.7636H22.8298L18.4607 45.6507L19.7761 51.8457L14.4015 48.671Z" fill="#E31D1C"/>
<path fill-rule="evenodd" clip-rule="evenodd" d="M44.1383 48.8922L38.8797 52.0669L40.0791 45.8719L35.7 41.2355L41.6296 40.9848L44.1383 35.2002L46.647 40.9848H52.5666L48.1975 45.8719L49.5129 52.0669L44.1383 48.8922Z" fill="#E31D1C"/>
<path fill-rule="evenodd" clip-rule="evenodd" d="M73.435 48.671L68.1763 51.8457L69.3758 45.6507L64.9966 41.0143L70.9262 40.7636L73.435 34.979L75.9437 40.7636H81.8632L77.4942 45.6507L78.8095 51.8457L73.435 48.671Z" fill="#E31D1C"/>
<path fill-rule="evenodd" clip-rule="evenodd" d="M-24 -7V26.7333H110.933V-7H-24Z" fill="#2D6600"/>
<path fill-rule="evenodd" clip-rule="evenodd" d="M-23.5535 60.2788V94.0121H111.38V60.2788H-23.5535Z" fill="#272727"/>
</g>
<defs>
<clipPath id="clip0_64_14836">
<rect x="0.5" width="88" height="88" rx="44" fill="white"/>
</clipPath>
</defs>
</svg>
