<svg width="88" height="88" viewBox="0 0 88 88" fill="none" xmlns="http://www.w3.org/2000/svg">
<g clip-path="url(#clip0_52_14343)">
<rect width="88" height="88" rx="44" fill="white"/>
<path fill-rule="evenodd" clip-rule="evenodd" d="M-18.3141 -2.73438V90.7366H106.314V-2.73438H-18.3141Z" fill="#E31D1C"/>
<mask id="mask0_52_14343" style="mask-type:luminance" maskUnits="userSpaceOnUse" x="-19" y="-3" width="126" height="94">
<path fill-rule="evenodd" clip-rule="evenodd" d="M-18.3141 -2.73438V90.7366H106.314V-2.73438H-18.3141Z" fill="white"/>
</mask>
<g mask="url(#mask0_52_14343)">
<path d="M43.0275 13.1769C50.2441 13.165 59.0463 17.3675 61.5799 23.3488C61.5799 23.3488 53.5087 18.6958 44.341 20.8875C35.1732 23.0793 29.3735 31.1761 29.3026 40.7546C29.2269 50.9867 35.7588 57.9672 44.0981 60.0218C52.4089 62.0691 61.1676 57.2247 61.2281 57.1911C60.1567 60.3642 54.9858 67.8223 44.0842 67.8406C30.485 67.8634 15.0222 58.0269 15.15 40.7545C15.2735 24.094 29.594 13.1994 43.0275 13.1769ZM68.9627 35.5958L77.6066 32.6867L72.2977 40.1008L80.3841 47.0515L70.1802 46.3106L64.003 53.7242L64.1625 43.842L54.787 40.5344L63.0963 37.4827L62.7843 28.727L68.9627 35.5958Z" fill="#F7FCFF"/>
</g>
</g>
<defs>
<clipPath id="clip0_52_14343">
<rect width="88" height="88" rx="44" fill="white"/>
</clipPath>
</defs>
</svg>
